<svg width="1119" height="702" viewBox="0 0 1119 702" fill="none" xmlns="http://www.w3.org/2000/svg">
<g id="languages">
<g id="cube">
<path id="Vector" opacity="0.39" d="M52.5066 517.013C62.7275 517.013 71.0131 508.727 71.0131 498.507C71.0131 488.286 62.7275 480 52.5066 480C42.2857 480 34 488.286 34 498.507C34 508.727 42.2857 517.013 52.5066 517.013Z" fill="white"/>
<path id="Vector_2" d="M52.2523 498.708L62.2498 492.898L62.219 503.766L52.2214 509.576L52.2523 498.708Z" stroke="#1E223B" stroke-width="2" stroke-linecap="round" stroke-linejoin="round"/>
<path id="Vector_3" d="M42.7937 493.247L52.7912 487.437L62.2499 492.898L52.2523 498.708L42.7937 493.247Z" stroke="#1E223B" stroke-width="2" stroke-linecap="round" stroke-linejoin="round"/>
<path id="Vector_4" d="M42.7937 493.247L52.7912 487.437L62.2499 492.898L52.2523 498.708L42.7937 493.247Z" fill="#028B9E" stroke="#1E223B" stroke-width="2" stroke-linecap="round" stroke-linejoin="round"/>
<path id="Vector_5" opacity="0.4" d="M52.2525 498.708L52.2216 509.576L42.7629 504.115L42.7938 493.247L52.2525 498.708Z" fill="#028B9E" stroke="#1E223B" stroke-width="2" stroke-linecap="round" stroke-linejoin="round"/>
<path id="Vector_6" d="M52.2525 498.708L52.2216 509.576L42.7629 504.115L42.7938 493.247L52.2525 498.708Z" stroke="#1E223B" stroke-width="2" stroke-linecap="round" stroke-linejoin="round"/>
<path id="Vector_7" d="M52.5066 517.013C62.7275 517.013 71.0131 508.727 71.0131 498.507C71.0131 488.286 62.7275 480 52.5066 480C42.2857 480 34 488.286 34 498.507C34 508.727 42.2857 517.013 52.5066 517.013Z" stroke="#1E223B" stroke-width="2" stroke-linecap="round" stroke-linejoin="round"/>
</g>
<g id="setting-2">
<path id="Vector_8" d="M74.6441 401.964C78.6866 401.964 81.9637 398.687 81.9637 394.645C81.9637 390.602 78.6866 387.325 74.6441 387.325C70.6016 387.325 67.3245 390.602 67.3245 394.645C67.3245 398.687 70.6016 401.964 74.6441 401.964Z" stroke="#1E223B" stroke-width="2" stroke-linecap="round" stroke-linejoin="round"/>
<path id="Vector_9" d="M74.6442 397.782C76.3767 397.782 77.7812 396.377 77.7812 394.645C77.7812 392.912 76.3767 391.508 74.6442 391.508C72.9116 391.508 71.5071 392.912 71.5071 394.645C71.5071 396.377 72.9116 397.782 74.6442 397.782Z" stroke="#1E223B" stroke-width="2" stroke-linecap="round" stroke-linejoin="round"/>
<path id="Vector_10" d="M86.0412 384.144L81.5133 386.758L81.5201 386.77C81.1894 386.481 80.8408 386.213 80.4764 385.969L80.4886 385.972L81.8418 380.922C81.9494 380.52 81.893 380.092 81.685 379.731C81.477 379.371 81.1345 379.108 80.7328 379L77.1975 378.053C76.7958 377.946 76.3677 378.002 76.0075 378.21C75.6473 378.418 75.3845 378.761 75.2768 379.162L73.9237 384.213H73.9312C73.4973 384.242 73.0656 384.299 72.6387 384.383L72.6445 384.379L70.0305 379.852C69.9276 379.673 69.7905 379.517 69.6271 379.391C69.4637 379.266 69.2772 379.174 69.0782 379.121C68.8792 379.067 68.6717 379.054 68.4675 379.081C68.2632 379.107 68.0663 379.174 67.8879 379.277L64.7185 381.108C64.5401 381.211 64.3837 381.348 64.2582 381.512C64.1328 381.675 64.0408 381.861 63.9874 382.06C63.9341 382.259 63.9204 382.467 63.9473 382.671C63.9742 382.875 64.0411 383.072 64.1441 383.25L66.7581 387.778L66.7638 387.775C66.4778 388.103 66.2125 388.449 65.9697 388.811L65.9718 388.803L60.9215 387.45C60.5197 387.342 60.0916 387.399 59.7314 387.607C59.3712 387.815 59.1084 388.157 59.0008 388.559L58.0534 392.094C57.9458 392.496 58.0022 392.924 58.2103 393.284C58.4183 393.645 58.7609 393.908 59.1627 394.015L64.2126 395.368L64.2159 395.356C64.2456 395.794 64.303 396.23 64.3878 396.66L64.3814 396.649L59.8535 399.263C59.4932 399.471 59.2304 399.814 59.1226 400.215C59.0149 400.617 59.0712 401.045 59.279 401.406L61.11 404.575C61.213 404.753 61.35 404.91 61.5134 405.035C61.6768 405.161 61.8633 405.253 62.0623 405.306C62.2613 405.359 62.4688 405.373 62.6731 405.346C62.8773 405.319 63.0742 405.252 63.2526 405.149L67.7802 402.535L67.7701 402.518C68.1048 402.81 68.4579 403.081 68.8271 403.328L68.8052 403.322L67.452 408.372C67.3444 408.774 67.4007 409.202 67.6087 409.562C67.8167 409.922 68.1592 410.185 68.561 410.293L72.0963 411.24C72.498 411.348 72.9261 411.291 73.2863 411.083C73.6465 410.875 73.9093 410.533 74.017 410.131L75.3701 405.081L75.3436 405.074C75.7904 405.044 76.2349 404.986 76.6741 404.899L76.6508 404.912L79.2651 409.44C79.368 409.618 79.5051 409.775 79.6685 409.9C79.8319 410.026 80.0184 410.118 80.2174 410.171C80.4164 410.224 80.6239 410.238 80.8282 410.211C81.0324 410.184 81.2293 410.117 81.4077 410.014L84.5771 408.183C84.9373 407.975 85.2002 407.633 85.3079 407.231C85.4156 406.83 85.3594 406.401 85.1515 406.041L82.5375 401.513L82.5142 401.527C82.8092 401.19 83.082 400.834 83.331 400.462L83.3238 400.488L88.3737 401.842C88.5727 401.895 88.7802 401.909 88.9845 401.882C89.1887 401.855 89.3856 401.788 89.564 401.685C89.7424 401.582 89.8988 401.445 90.0242 401.281C90.1495 401.118 90.2415 400.931 90.2948 400.732L91.2419 397.198C91.2953 396.999 91.3089 396.791 91.282 396.587C91.2552 396.383 91.1884 396.186 91.0854 396.007C90.9824 395.829 90.8453 395.672 90.6818 395.547C90.5184 395.422 90.3319 395.33 90.1329 395.276L85.0797 393.925L85.0736 393.947C85.0443 393.504 84.9867 393.063 84.9009 392.627L84.911 392.645L89.4389 390.031C89.7991 389.823 90.062 389.48 90.1697 389.078C90.2774 388.676 90.2212 388.248 90.0133 387.888L88.1823 384.719C87.9744 384.359 87.6321 384.096 87.2306 383.988C86.8292 383.881 86.4014 383.937 86.0412 384.144Z" stroke="#1E223B" stroke-width="2" stroke-linecap="round" stroke-linejoin="round"/>
</g>
<g id="settings">
<path id="Vector_11" d="M680.596 23.4474C684.383 23.4474 687.452 20.3779 687.452 16.5916C687.452 12.8053 684.383 9.73584 680.596 9.73584C676.81 9.73584 673.741 12.8053 673.741 16.5916C673.741 20.3779 676.81 23.4474 680.596 23.4474Z" stroke="#1E223B" stroke-width="2" stroke-linecap="round" stroke-linejoin="round"/>
<path id="Vector_12" d="M680.596 19.5297C682.219 19.5297 683.535 18.2143 683.535 16.5916C683.535 14.9688 682.219 13.6534 680.596 13.6534C678.974 13.6534 677.658 14.9688 677.658 16.5916C677.658 18.2143 678.974 19.5297 680.596 19.5297Z" stroke="#1E223B" stroke-width="2" stroke-linecap="round" stroke-linejoin="round"/>
<path id="Vector_13" d="M695.099 17.1857L690.369 15.9184L690.366 15.9302C690.338 15.5204 690.284 15.1127 690.205 14.7096L690.211 14.7196L694.452 12.2712C694.619 12.1748 694.766 12.0464 694.883 11.8934C695.001 11.7404 695.087 11.5658 695.137 11.3794C695.187 11.1931 695.2 10.9987 695.175 10.8075C695.149 10.6162 695.087 10.4317 694.99 10.2646L693.278 7.29483C693.083 6.95731 692.762 6.71098 692.386 6.60999C692.009 6.509 691.608 6.56163 691.271 6.7563L687.03 9.20479L687.033 9.21126C686.726 8.94282 686.402 8.69411 686.064 8.46666H686.07L687.337 3.73626C687.438 3.35992 687.385 2.95896 687.19 2.62158C686.996 2.2842 686.675 2.03804 686.298 1.93723L682.988 1.0501C682.801 1.00015 682.607 0.987386 682.416 1.01255C682.224 1.03771 682.04 1.1003 681.873 1.19675C681.706 1.29319 681.559 1.42161 681.442 1.57466C681.324 1.7277 681.238 1.90239 681.188 2.08874L679.921 6.81877H679.927C679.52 6.84655 679.115 6.89991 678.715 6.97853L678.721 6.97495L676.273 2.73425C676.078 2.39674 675.757 2.15039 675.381 2.0494C675.005 1.94841 674.603 2.00105 674.266 2.19572L671.297 3.90966C671.13 4.00606 670.984 4.13444 670.866 4.28747C670.748 4.44051 670.662 4.6152 670.612 4.80156C670.562 4.98793 670.549 5.18232 670.575 5.37363C670.6 5.56495 670.662 5.74944 670.759 5.91657L673.207 10.1573L673.217 10.1515C672.947 10.4613 672.696 10.7878 672.467 11.1291L672.47 11.1173L667.74 9.84959C667.364 9.74881 666.963 9.80166 666.626 9.9965C666.288 10.1913 666.042 10.5122 665.941 10.8886L665.054 14.1994C664.953 14.5758 665.006 14.9767 665.201 15.3142C665.395 15.6516 665.716 15.8978 666.093 15.9988L670.823 17.2661L670.828 17.2482C670.856 17.6633 670.911 18.0762 670.991 18.4843L670.981 18.466L666.74 20.9145C666.573 21.0108 666.426 21.1392 666.309 21.2922C666.191 21.4452 666.105 21.6198 666.055 21.8062C666.005 21.9925 665.992 22.1869 666.017 22.3782C666.042 22.5694 666.105 22.7539 666.201 22.921L667.915 25.8897C668.11 26.2272 668.431 26.4736 668.807 26.5745C669.184 26.6755 669.585 26.6229 669.922 26.4282L674.163 23.9797L674.15 23.9575C674.466 24.2338 674.799 24.4894 675.147 24.7225L675.123 24.7161L673.856 29.4461C673.806 29.6325 673.793 29.8268 673.818 30.0181C673.843 30.2094 673.906 30.3938 674.002 30.5609C674.099 30.728 674.227 30.8745 674.38 30.9919C674.533 31.1094 674.708 31.1956 674.894 31.2455L678.205 32.1326C678.392 32.1826 678.586 32.1954 678.777 32.1703C678.969 32.1451 679.153 32.0826 679.32 31.9861C679.487 31.8896 679.634 31.7612 679.751 31.6081C679.868 31.4551 679.955 31.2804 680.004 31.094L681.272 26.364L681.248 26.3575C681.666 26.3296 682.082 26.2747 682.494 26.1931L682.472 26.206L684.92 30.4467C685.016 30.6139 685.145 30.7604 685.298 30.878C685.451 30.9956 685.626 31.0818 685.812 31.1318C685.998 31.1818 686.193 31.1946 686.384 31.1695C686.575 31.1443 686.76 31.0817 686.927 30.9852L689.895 29.2713C690.063 29.1749 690.209 29.0466 690.327 28.8935C690.444 28.7405 690.53 28.5658 690.58 28.3794C690.63 28.193 690.643 27.9986 690.618 27.8073C690.593 27.616 690.53 27.4315 690.434 27.2644L687.985 23.0237L687.967 23.0345C688.241 22.7214 688.495 22.391 688.727 22.0454L688.722 22.0637L693.452 23.3314C693.829 23.4321 694.23 23.3793 694.567 23.1844C694.904 22.9896 695.151 22.6687 695.251 22.2924L696.139 18.9815C696.238 18.6055 696.185 18.2054 695.99 17.8687C695.795 17.5321 695.475 17.2865 695.099 17.1857V17.1857Z" stroke="#1E223B" stroke-width="2" stroke-linecap="round" stroke-linejoin="round"/>
<g id="Group" opacity="0.49">
<path id="Vector_14" opacity="0.49" d="M680.594 23.4477C684.38 23.4477 687.449 20.3783 687.449 16.5919C687.449 12.8056 684.38 9.73618 680.594 9.73618C676.807 9.73618 673.738 12.8056 673.738 16.5919C673.738 20.3783 676.807 23.4477 680.594 23.4477Z" fill="white"/>
<path id="Vector_15" opacity="0.49" d="M680.593 19.5301C682.216 19.5301 683.532 18.2147 683.532 16.5919C683.532 14.9692 682.216 13.6537 680.593 13.6537C678.971 13.6537 677.655 14.9692 677.655 16.5919C677.655 18.2147 678.971 19.5301 680.593 19.5301Z" fill="white"/>
<path id="Vector_16" opacity="0.49" d="M691.269 6.75701L687.028 9.2055L687.034 9.21627C686.724 8.94577 686.398 8.69516 686.056 8.46593L686.068 8.46916L687.335 3.73876C687.436 3.36246 687.383 2.96155 687.188 2.62418C686.994 2.28681 686.673 2.04061 686.297 1.93973L682.985 1.0526C682.799 1.00265 682.605 0.989889 682.413 1.01505C682.222 1.04021 682.038 1.1028 681.871 1.19925C681.703 1.29569 681.557 1.42411 681.44 1.57716C681.322 1.73021 681.236 1.90489 681.186 2.09124L679.919 6.82127L679.926 6.82343C679.519 6.85099 679.114 6.90411 678.714 6.98247L678.719 6.97924L676.271 2.73854C676.076 2.40103 675.755 2.15469 675.379 2.0537C675.002 1.95271 674.601 2.00534 674.264 2.20002L671.295 3.91396C671.128 4.01036 670.981 4.13874 670.864 4.29177C670.746 4.44481 670.66 4.61949 670.61 4.80586C670.56 4.99223 670.547 5.18661 670.572 5.37793C670.598 5.56924 670.66 5.75373 670.757 5.92086L673.205 10.1616L673.21 10.1583C672.942 10.4655 672.694 10.7893 672.467 11.1277V11.1209L667.737 9.85317C667.36 9.75239 666.959 9.80523 666.622 10.0001C666.284 10.1949 666.038 10.5158 665.937 10.8922L665.05 14.2034C664.949 14.5797 665.002 14.9807 665.197 15.318C665.392 15.6554 665.713 15.9016 666.089 16.0024L670.819 17.2697L670.822 17.2586C670.85 17.6685 670.904 18.0762 670.983 18.4792L670.977 18.4685L666.736 20.917C666.569 21.0133 666.422 21.1417 666.305 21.2947C666.187 21.4477 666.101 21.6223 666.051 21.8087C666.001 21.995 665.988 22.1894 666.013 22.3807C666.038 22.5719 666.101 22.7564 666.197 22.9235L667.911 25.8922C668.106 26.2297 668.427 26.4761 668.803 26.5771C669.18 26.678 669.581 26.6254 669.918 26.4307L674.159 23.9822L674.15 23.9657C674.463 24.2395 674.794 24.4929 675.139 24.7243L675.119 24.7186L673.852 29.449C673.802 29.6353 673.789 29.8296 673.814 30.0209C673.839 30.2122 673.902 30.3966 673.998 30.5636C674.095 30.7307 674.223 30.8771 674.376 30.9946C674.529 31.112 674.704 31.1981 674.89 31.248L678.201 32.1351C678.388 32.1851 678.582 32.1979 678.773 32.1727C678.965 32.1475 679.149 32.0849 679.316 31.9885C679.483 31.892 679.63 31.7636 679.747 31.6106C679.865 31.4575 679.951 31.2829 680.001 31.0965L681.268 26.3665L681.243 26.3597C681.662 26.3321 682.078 26.2774 682.489 26.1959L682.468 26.2085L684.916 30.4492C685.013 30.6164 685.141 30.7629 685.294 30.8804C685.447 30.9979 685.622 31.0842 685.808 31.1342C685.994 31.1842 686.189 31.197 686.38 31.1719C686.571 31.1467 686.756 31.0842 686.923 30.9877L689.891 29.2738C690.059 29.1774 690.205 29.0491 690.323 28.896C690.44 28.743 690.527 28.5683 690.577 28.3819C690.627 28.1955 690.639 28.0011 690.614 27.8098C690.589 27.6185 690.526 27.434 690.43 27.2669L687.981 23.0262L687.96 23.0388C688.236 22.7231 688.491 22.39 688.725 22.0414L688.718 22.0662L693.448 23.3339C693.825 23.4346 694.226 23.3818 694.563 23.187C694.9 22.9921 695.147 22.6712 695.248 22.2949L696.135 18.984C696.235 18.6076 696.183 18.2066 695.988 17.8692C695.793 17.5318 695.472 17.2855 695.096 17.1846L690.366 15.9173L690.36 15.9378C690.333 15.5226 690.279 15.1096 690.198 14.7013L690.208 14.7175L694.449 12.269C694.616 12.1726 694.762 12.0443 694.88 11.8913C694.997 11.7383 695.084 11.5636 695.134 11.3773C695.184 11.1909 695.197 10.9966 695.171 10.8053C695.146 10.614 695.084 10.4295 694.987 10.2624L693.277 7.29481C693.181 7.12752 693.052 6.98088 692.899 6.86329C692.746 6.74571 692.571 6.65947 692.384 6.60952C692.198 6.55958 692.003 6.54689 691.812 6.5722C691.62 6.5975 691.436 6.6603 691.269 6.75701V6.75701Z" fill="white"/>
</g>
</g>
<g id="circle-ting">
<path id="Vector_17" d="M1118.5 445.752C1118.5 448.669 1117.64 451.521 1116.01 453.946C1114.39 456.372 1112.09 458.262 1109.39 459.378C1106.7 460.495 1103.73 460.787 1100.87 460.217C1098.01 459.648 1095.38 458.243 1093.32 456.18C1091.26 454.117 1089.85 451.489 1089.28 448.628C1088.71 445.766 1089.01 442.801 1090.12 440.105C1091.24 437.41 1093.13 435.107 1095.56 433.486C1097.98 431.865 1100.83 431 1103.75 431C1105.69 431 1107.61 431.382 1109.4 432.123C1111.19 432.864 1112.81 433.951 1114.18 435.321C1115.55 436.691 1116.64 438.317 1117.38 440.106C1118.12 441.896 1118.5 443.814 1118.5 445.752V445.752Z" fill="#DD4814"/>
<path id="Vector_18" d="M1093.72 443.778C1093.33 443.778 1092.95 443.893 1092.63 444.11C1092.3 444.326 1092.05 444.633 1091.9 444.993C1091.75 445.353 1091.71 445.748 1091.79 446.131C1091.86 446.513 1092.05 446.864 1092.33 447.139C1092.6 447.415 1092.95 447.603 1093.33 447.68C1093.72 447.756 1094.11 447.718 1094.47 447.569C1094.83 447.421 1095.14 447.169 1095.36 446.845C1095.57 446.522 1095.69 446.141 1095.69 445.752C1095.69 445.493 1095.64 445.236 1095.54 444.997C1095.44 444.758 1095.3 444.54 1095.11 444.357C1094.93 444.174 1094.71 444.028 1094.48 443.929C1094.24 443.83 1093.98 443.779 1093.72 443.778V443.778ZM1107.78 452.729C1107.45 452.923 1107.17 453.214 1107 453.563C1106.83 453.912 1106.76 454.304 1106.81 454.69C1106.87 455.076 1107.03 455.439 1107.29 455.732C1107.54 456.025 1107.88 456.235 1108.26 456.336C1108.63 456.436 1109.03 456.424 1109.4 456.298C1109.77 456.173 1110.09 455.942 1110.33 455.633C1110.57 455.324 1110.71 454.952 1110.73 454.563C1110.76 454.175 1110.67 453.787 1110.47 453.45C1110.21 452.999 1109.78 452.67 1109.28 452.535C1108.77 452.4 1108.23 452.471 1107.78 452.732V452.729ZM1098 445.747C1098 444.824 1098.22 443.914 1098.65 443.095C1099.07 442.276 1099.69 441.572 1100.45 441.042L1099.01 438.629C1097.26 439.797 1096 441.567 1095.47 443.603C1095.79 443.863 1096.04 444.19 1096.22 444.561C1096.4 444.932 1096.49 445.337 1096.49 445.748C1096.49 446.158 1096.4 446.564 1096.22 446.935C1096.04 447.306 1095.79 447.633 1095.47 447.892C1096 449.928 1097.26 451.699 1099.01 452.866L1100.45 450.454C1099.69 449.924 1099.07 449.22 1098.65 448.401C1098.22 447.583 1098 446.673 1098 445.75V445.747ZM1103.75 439.995C1105.19 439.995 1106.57 440.533 1107.63 441.502C1108.69 442.472 1109.35 443.803 1109.48 445.234L1112.29 445.193C1112.15 443.093 1111.25 441.117 1109.75 439.644C1109.36 439.789 1108.95 439.847 1108.54 439.813C1108.13 439.78 1107.74 439.656 1107.38 439.451C1107.03 439.246 1106.72 438.964 1106.49 438.627C1106.26 438.29 1106.1 437.905 1106.04 437.5C1104.01 436.938 1101.85 437.143 1099.96 438.075L1101.33 440.528C1102.09 440.177 1102.92 439.996 1103.75 439.998V439.995ZM1103.75 451.5C1102.91 451.501 1102.09 451.318 1101.33 450.965L1099.96 453.418C1101.85 454.349 1104.01 454.554 1106.04 453.992C1106.1 453.587 1106.26 453.202 1106.49 452.865C1106.72 452.528 1107.03 452.246 1107.38 452.041C1107.74 451.836 1108.13 451.712 1108.54 451.679C1108.95 451.645 1109.36 451.703 1109.75 451.848C1111.25 450.375 1112.15 448.399 1112.29 446.299L1109.48 446.258C1109.35 447.69 1108.7 449.023 1107.64 449.994C1106.58 450.965 1105.19 451.504 1103.75 451.504V451.5ZM1107.78 438.766C1108.12 438.961 1108.51 439.051 1108.9 439.025C1109.28 439 1109.66 438.86 1109.97 438.623C1110.27 438.385 1110.51 438.062 1110.63 437.693C1110.76 437.325 1110.77 436.927 1110.67 436.551C1110.57 436.175 1110.36 435.838 1110.06 435.581C1109.77 435.324 1109.41 435.16 1109.02 435.109C1108.64 435.058 1108.25 435.123 1107.9 435.295C1107.55 435.468 1107.26 435.739 1107.06 436.077C1106.93 436.301 1106.85 436.548 1106.81 436.805C1106.78 437.062 1106.8 437.323 1106.86 437.573C1106.93 437.823 1107.05 438.058 1107.2 438.263C1107.36 438.469 1107.56 438.641 1107.78 438.77V438.766Z" fill="white"/>
</g>
<g id="cube-1">
<path id="Vector_19" d="M779.562 647.754L789.634 641.9L789.604 652.851L779.53 658.704L779.562 647.754Z" fill="#777BB4"/>
<path id="Vector_20" d="M779.562 647.754L789.634 641.9L789.604 652.851L779.53 658.704L779.562 647.754Z" stroke="#1E223B" stroke-width="2" stroke-linecap="round" stroke-linejoin="round"/>
<path id="Vector_21" opacity="0.88" d="M770.031 642.251L780.104 636.397L789.634 641.9L779.561 647.754L770.031 642.251Z" fill="#FF5855" stroke="#1E223B" stroke-miterlimit="10"/>
<path id="Vector_22" d="M779.561 647.754L779.53 658.704L770 653.202L770.031 642.251L779.561 647.754Z" fill="#0270BB"/>
<path id="Vector_23" d="M770.031 642.251L780.104 636.397L789.634 641.9L779.561 647.754L770.031 642.251Z" stroke="#1E223B" stroke-width="2" stroke-linecap="round" stroke-linejoin="round"/>
<path id="Vector_24" d="M779.561 647.754L779.53 658.704L770 653.202L770.031 642.251L779.561 647.754Z" stroke="#1E223B" stroke-width="2" stroke-linecap="round" stroke-linejoin="round"/>
<path id="Vector_25" opacity="0.59" d="M772.17 632.308C773.36 632.308 774.324 631.344 774.324 630.154C774.324 628.964 773.36 628 772.17 628C770.981 628 770.016 628.964 770.016 630.154C770.016 631.344 770.981 632.308 772.17 632.308Z" fill="white"/>
<path id="Vector_26" d="M772.17 632.308C773.36 632.308 774.324 631.344 774.324 630.154C774.324 628.964 773.36 628 772.17 628C770.981 628 770.016 628.964 770.016 630.154C770.016 631.344 770.981 632.308 772.17 632.308Z" stroke="#1E223B" stroke-width="2" stroke-linecap="round" stroke-linejoin="round"/>
<path id="Vector_27" opacity="0.59" d="M779.53 632.308C780.72 632.308 781.684 631.344 781.684 630.154C781.684 628.964 780.72 628 779.53 628C778.34 628 777.376 628.964 777.376 630.154C777.376 631.344 778.34 632.308 779.53 632.308Z" fill="white"/>
<path id="Vector_28" d="M779.53 632.308C780.72 632.308 781.684 631.344 781.684 630.154C781.684 628.964 780.72 628 779.53 628C778.34 628 777.376 628.964 777.376 630.154C777.376 631.344 778.34 632.308 779.53 632.308Z" stroke="#1E223B" stroke-width="2" stroke-linecap="round" stroke-linejoin="round"/>
<path id="Vector_29" opacity="0.59" d="M786.89 632.308C788.08 632.308 789.044 631.344 789.044 630.154C789.044 628.964 788.08 628 786.89 628C785.7 628 784.736 628.964 784.736 630.154C784.736 631.344 785.7 632.308 786.89 632.308Z" fill="white"/>
<path id="Vector_30" d="M786.89 632.308C788.08 632.308 789.044 631.344 789.044 630.154C789.044 628.964 788.08 628 786.89 628C785.7 628 784.736 628.964 784.736 630.154C784.736 631.344 785.7 632.308 786.89 632.308Z" stroke="#1E223B" stroke-width="2" stroke-linecap="round" stroke-linejoin="round"/>
</g>
<g id="cube-2">
<path id="Vector_31" opacity="0.12" d="M1003.38 365.335L995.715 360.883L995.738 369.212L1003.4 373.664L1003.38 365.335Z" fill="#0270BB"/>
<path id="Vector_32" d="M1003.38 365.335L995.715 360.883L995.738 369.212L1003.4 373.664L1003.38 365.335Z" stroke="#1E223B" stroke-width="2" stroke-linecap="round" stroke-linejoin="round"/>
<path id="Vector_33" opacity="0.47" d="M1010.62 361.151L1002.96 356.699L995.715 360.883L1003.38 365.335L1010.62 361.151Z" fill="#0270BB"/>
<path id="Vector_34" d="M1010.62 361.151L1002.96 356.699L995.715 360.883L1003.38 365.335L1010.62 361.151Z" stroke="#1E223B" stroke-width="2" stroke-linecap="round" stroke-linejoin="round"/>
<path id="Vector_35" d="M1003.38 365.335L1003.4 373.664L1010.65 369.479L1010.62 361.151L1003.38 365.335Z" fill="white" stroke="#1E223B" stroke-width="2" stroke-linecap="round" stroke-linejoin="round"/>
<path id="Vector_36" d="M1003.38 365.335L1003.4 373.664L1010.65 369.479L1010.62 361.151L1003.38 365.335Z" stroke="#1E223B" stroke-width="2" stroke-linecap="round" stroke-linejoin="round"/>
<path id="Vector_37" d="M1003.18 379.362C1011.01 379.362 1017.36 373.013 1017.36 365.181C1017.36 357.349 1011.01 351 1003.18 351C995.349 351 989 357.349 989 365.181C989 373.013 995.349 379.362 1003.18 379.362Z" stroke="#1E223B" stroke-width="2" stroke-linecap="round" stroke-linejoin="round"/>
</g>
<g id="CSS">
<path id="Vector_38" d="M1080.38 121H1055.25C1053.45 121 1052 122.453 1052 124.246V133.985C1052 135.777 1053.45 137.231 1055.25 137.231H1080.38C1082.17 137.231 1083.62 135.777 1083.62 133.985V124.246C1083.62 122.453 1082.17 121 1080.38 121Z" fill="#0270BB"/>
<path id="Vector_39" d="M1080.38 121H1055.25C1053.45 121 1052 122.453 1052 124.246V133.985C1052 135.777 1053.45 137.231 1055.25 137.231H1080.38C1082.17 137.231 1083.62 135.777 1083.62 133.985V124.246C1083.62 122.453 1082.17 121 1080.38 121Z" stroke="#1E223B" stroke-width="2" stroke-linecap="round" stroke-linejoin="round"/>
<path id="Vector_40" d="M1056.88 129.017C1056.88 126.697 1058.6 125.132 1060.82 125.132C1061.42 125.115 1062.02 125.262 1062.55 125.557C1063.08 125.853 1063.52 126.285 1063.83 126.81L1062.71 127.395C1062.52 127.065 1062.24 126.791 1061.91 126.6C1061.58 126.409 1061.2 126.306 1060.82 126.303C1059.33 126.303 1058.23 127.429 1058.23 129.017C1058.23 130.583 1059.33 131.731 1060.82 131.731C1061.2 131.725 1061.57 131.622 1061.91 131.43C1062.24 131.239 1062.51 130.967 1062.71 130.639L1063.84 131.202C1063.53 131.728 1063.09 132.162 1062.56 132.461C1062.03 132.76 1061.43 132.912 1060.82 132.902C1058.6 132.902 1056.88 131.326 1056.88 129.017Z" fill="white"/>
<path id="Vector_41" d="M1065.24 131.708L1065.99 130.684C1066.29 131.013 1066.66 131.277 1067.06 131.457C1067.47 131.637 1067.92 131.731 1068.36 131.731C1069.44 131.731 1069.86 131.202 1069.86 130.695C1069.86 129.118 1065.49 130.098 1065.49 127.339C1065.49 126.089 1066.57 125.132 1068.23 125.132C1068.74 125.114 1069.25 125.198 1069.74 125.38C1070.22 125.562 1070.66 125.837 1071.03 126.19L1070.29 127.17C1070 126.888 1069.66 126.667 1069.28 126.518C1068.91 126.37 1068.51 126.296 1068.1 126.303C1067.34 126.303 1066.84 126.686 1066.84 127.236C1066.84 128.644 1071.21 127.777 1071.21 130.57C1071.21 131.82 1070.32 132.901 1068.31 132.901C1067.74 132.924 1067.18 132.83 1066.65 132.625C1066.12 132.419 1065.64 132.107 1065.24 131.708Z" fill="white"/>
<path id="Vector_42" d="M1072.78 131.708L1073.52 130.684C1073.82 131.013 1074.19 131.277 1074.6 131.457C1075.01 131.637 1075.45 131.731 1075.9 131.731C1076.98 131.731 1077.39 131.202 1077.39 130.695C1077.39 129.118 1073.02 130.098 1073.02 127.339C1073.02 126.089 1074.11 125.132 1075.76 125.132C1076.28 125.114 1076.79 125.198 1077.27 125.38C1077.75 125.562 1078.19 125.837 1078.57 126.19L1077.82 127.17C1077.53 126.888 1077.19 126.667 1076.82 126.518C1076.44 126.37 1076.04 126.296 1075.64 126.303C1074.87 126.303 1074.38 126.686 1074.38 127.236C1074.38 128.644 1078.75 127.777 1078.75 130.57C1078.75 131.82 1077.86 132.901 1075.84 132.901C1075.27 132.924 1074.71 132.83 1074.18 132.625C1073.66 132.419 1073.18 132.107 1072.78 131.708V131.708Z" fill="white"/>
</g>
<g id="square-ting">
<path id="Vector_43" d="M1112.1 356.502C1112.2 356.648 1112.26 356.636 1112.34 356.603C1112.42 356.569 1116.46 355.206 1116.58 355.161C1116.71 355.116 1116.67 355.077 1116.63 355.015C1116.59 354.953 1115.24 353.125 1115.17 353.018C1115.11 352.911 1115.07 352.934 1114.97 352.968L1110.69 354.081C1110.69 354.081 1112 356.355 1112.1 356.5V356.502Z" fill="#F35045"/>
<path id="Vector_44" d="M1116.67 354.437V352.297L1115.33 352.651C1115.7 353.137 1116.26 353.896 1116.67 354.437V354.437Z" fill="#F35045"/>
<path id="Vector_45" d="M1115.59 350.217C1115.52 350.232 1114.06 350.496 1113.97 350.508C1113.88 350.52 1113.91 350.571 1113.95 350.622L1115.23 352.386C1115.23 352.386 1116.81 351.996 1116.9 351.975L1116.93 351.97V351.736C1116.64 351.374 1115.86 350.387 1115.79 350.295C1115.71 350.184 1115.66 350.202 1115.59 350.217H1115.59Z" fill="#F35045"/>
<path id="Vector_46" d="M1106.4 347.446C1106.71 347.432 1106.74 347.504 1106.88 347.71L1110.37 353.548L1114.76 352.496C1114.52 352.151 1113.42 350.586 1113.31 350.436C1113.19 350.268 1113.31 350.19 1113.51 350.157C1113.7 350.125 1115.38 349.842 1115.53 349.821C1115.67 349.8 1115.78 349.749 1116.02 350.031C1116.14 350.175 1116.54 350.681 1116.92 351.155V348.424C1116.92 347.781 1116.67 347.166 1116.21 346.711C1115.76 346.257 1115.14 346.001 1114.5 346H1106.42C1106.1 345.996 1105.79 346.056 1105.49 346.179C1105.2 346.301 1104.93 346.482 1104.71 346.711C1104.45 346.967 1104.25 347.278 1104.13 347.623C1104.92 347.558 1106.18 347.456 1106.4 347.446V347.446Z" fill="#F35045"/>
<path id="Vector_47" d="M1112.5 357.287C1112.13 357.4 1111.96 357.455 1111.72 357.119C1111.54 356.867 1110.56 355.108 1110.08 354.24C1109.18 354.477 1107.52 354.91 1107.04 355.025C1106.89 355.076 1106.74 355.068 1106.6 355.005C1106.46 354.941 1106.35 354.827 1106.3 354.685C1106.24 354.564 1104.87 351.612 1104 349.719V356.501C1104 357.144 1104.26 357.76 1104.71 358.214C1105.17 358.668 1105.78 358.924 1106.42 358.925H1114.5C1115.14 358.924 1115.76 358.668 1116.21 358.214C1116.67 357.76 1116.92 357.144 1116.92 356.501V355.705C1115.93 356.067 1112.75 357.213 1112.5 357.287Z" fill="#F35045"/>
<path id="Vector_48" d="M1107.05 354.345C1107.18 354.315 1109.64 353.727 1109.69 353.716C1109.75 353.704 1109.78 353.674 1109.72 353.577L1106.45 347.918C1106.42 347.867 1106.42 347.85 1106.34 347.854C1106.27 347.858 1104.45 348.02 1104.03 348.056C1104.01 348.145 1104.01 348.235 1104 348.325C1104.43 349.202 1106.89 354.274 1106.9 354.315C1106.92 354.356 1106.92 354.375 1107.05 354.345V354.345Z" fill="#F35045"/>
</g>
<g id="lines">
<path id="Vector_49" opacity="0.15" d="M1076 274H1109.75" stroke="#1E223B" stroke-width="2" stroke-linecap="round" stroke-linejoin="round"/>
<path id="Vector_50" opacity="0.32" d="M1076 277.112H1097.54" stroke="#1E223B" stroke-width="2" stroke-linecap="round" stroke-linejoin="round"/>
<path id="Vector_51" opacity="0.32" d="M1093.23 280.223H1105.8" stroke="#1E223B" stroke-width="2" stroke-linecap="round" stroke-linejoin="round"/>
<path id="Vector_52" opacity="0.26" d="M1076 280.223H1091.08" stroke="#1E223B" stroke-width="2" stroke-linecap="round" stroke-linejoin="round"/>
<path id="Vector_53" opacity="0.15" d="M1076 283.334H1088.92" stroke="#1E223B" stroke-width="2" stroke-linecap="round" stroke-linejoin="round"/>
</g>
<g id="loading">
<path id="Vector_54" d="M949.436 331.128C949.055 331.128 948.69 330.963 948.421 330.67C948.151 330.377 948 329.979 948 329.564C948 329.149 948.151 328.751 948.421 328.458C948.69 328.165 949.055 328 949.436 328H978.397V331.128H949.436Z" fill="#4AD3A5" stroke="#1E223B" stroke-miterlimit="10"/>
<path id="Vector_55" d="M994.672 331.128H949.436C948.643 331.128 948 330.428 948 329.564C948 328.7 948.643 328 949.436 328H994.672C995.465 328 996.108 328.7 996.108 329.564C996.108 330.428 995.465 331.128 994.672 331.128Z" stroke="#1E223B" stroke-linecap="round" stroke-linejoin="round"/>
</g>
<g id="comment-2">
<path id="Vector_56" d="M120.446 693.538H111.04L101.224 700.082V693.538H94.2717C93.404 693.538 92.5718 693.194 91.9583 692.58C91.3447 691.967 91 691.134 91 690.267V672.272C91 671.404 91.3447 670.572 91.9583 669.958C92.5718 669.345 93.404 669 94.2717 669H120.446C120.876 669 121.301 669.085 121.698 669.249C122.095 669.413 122.456 669.654 122.76 669.958C123.064 670.262 123.305 670.623 123.469 671.02C123.634 671.417 123.718 671.842 123.718 672.272V690.267C123.718 690.696 123.634 691.122 123.469 691.519C123.305 691.916 123.064 692.276 122.76 692.58C122.456 692.884 122.095 693.125 121.698 693.289C121.301 693.454 120.876 693.538 120.446 693.538V693.538Z" fill="white"/>
<path id="Vector_57" d="M120.446 693.538H111.04L101.224 700.082V693.538H94.2717C93.404 693.538 92.5718 693.194 91.9583 692.58C91.3447 691.967 91 691.134 91 690.267V672.272C91 671.404 91.3447 670.572 91.9583 669.958C92.5718 669.345 93.404 669 94.2717 669H120.446C120.876 669 121.301 669.085 121.698 669.249C122.095 669.413 122.456 669.654 122.76 669.958C123.064 670.262 123.305 670.623 123.469 671.02C123.634 671.417 123.718 671.842 123.718 672.272V690.267C123.718 690.696 123.634 691.122 123.469 691.519C123.305 691.916 123.064 692.276 122.76 692.58C122.456 692.884 122.095 693.125 121.698 693.289C121.301 693.454 120.876 693.538 120.446 693.538Z" stroke="#1E223B" stroke-width="2" stroke-linecap="round" stroke-linejoin="round"/>
<path id="Vector_58" d="M98.0186 681.049H113.097" stroke="#1E223B" stroke-width="3" stroke-linecap="round" stroke-linejoin="round"/>
<path id="Vector_59" d="M98.0186 685.896H106.635" stroke="#1E223B" stroke-width="3" stroke-linecap="round" stroke-linejoin="round"/>
</g>
<g id="coment-1">
<path id="Vector_60" opacity="0.5" d="M1081.12 581.889H1087.21L1093.56 586.125V581.889H1098.06C1098.63 581.889 1099.16 581.666 1099.56 581.269C1099.96 580.871 1100.18 580.333 1100.18 579.771V568.118C1100.18 567.556 1099.96 567.018 1099.56 566.62C1099.16 566.223 1098.63 566 1098.06 566H1081.12C1080.56 566 1080.02 566.223 1079.62 566.62C1079.22 567.018 1079 567.556 1079 568.118V579.77C1079 580.048 1079.05 580.324 1079.16 580.581C1079.27 580.838 1079.42 581.072 1079.62 581.268C1079.82 581.465 1080.05 581.621 1080.31 581.728C1080.56 581.834 1080.84 581.889 1081.12 581.889V581.889Z" fill="white"/>
<path id="Vector_61" d="M1081.12 581.889H1087.21L1093.56 586.125V581.889H1098.06C1098.63 581.889 1099.16 581.666 1099.56 581.269C1099.96 580.871 1100.18 580.333 1100.18 579.771V568.118C1100.18 567.556 1099.96 567.018 1099.56 566.62C1099.16 566.223 1098.63 566 1098.06 566H1081.12C1080.56 566 1080.02 566.223 1079.62 566.62C1079.22 567.018 1079 567.556 1079 568.118V579.77C1079 580.048 1079.05 580.324 1079.16 580.581C1079.27 580.838 1079.42 581.072 1079.62 581.268C1079.82 581.465 1080.05 581.621 1080.31 581.728C1080.56 581.834 1080.84 581.889 1081.12 581.889V581.889Z" stroke="#1E223B" stroke-width="2" stroke-linecap="round" stroke-linejoin="round"/>
<path id="Vector_62" d="M1084.28 572.139H1093.98" stroke="#1E223B" stroke-width="3" stroke-linecap="round" stroke-linejoin="round"/>
<path id="Vector_63" d="M1084.28 574.652H1090.39" stroke="#1E223B" stroke-width="3" stroke-linecap="round" stroke-linejoin="round"/>
</g>
<path id="Vector_64" opacity="0.39" d="M998.745 466.857C1000.23 466.857 1001.44 465.652 1001.44 464.165C1001.44 462.677 1000.23 461.472 998.745 461.472C997.258 461.472 996.053 462.677 996.053 464.165C996.053 465.652 997.258 466.857 998.745 466.857Z" fill="white"/>
<g id="sql">
<path id="Vector_65" d="M948.375 20H923.246C921.453 20 920 21.4534 920 23.2462V32.9846C920 34.7774 921.453 36.2308 923.246 36.2308H948.375C950.168 36.2308 951.621 34.7774 951.621 32.9846V23.2462C951.621 21.4534 950.168 20 948.375 20Z" fill="#F73E59"/>
<path id="Vector_66" d="M948.375 20H923.246C921.453 20 920 21.4534 920 23.2462V32.9846C920 34.7774 921.453 36.2308 923.246 36.2308H948.375C950.168 36.2308 951.621 34.7774 951.621 32.9846V23.2462C951.621 21.4534 950.168 20 948.375 20Z" stroke="#1E223B" stroke-width="2" stroke-linecap="round" stroke-linejoin="round"/>
<path id="Vector_67" d="M924.101 30.9536L924.867 29.8974C925.178 30.2372 925.557 30.5086 925.979 30.6945C926.401 30.8803 926.856 30.9765 927.317 30.9769C928.43 30.9769 928.861 30.4312 928.861 29.9089C928.861 28.2832 924.356 29.2935 924.356 26.4487C924.356 25.1598 925.469 24.1725 927.178 24.1725C927.708 24.1542 928.236 24.2412 928.733 24.4286C929.229 24.6159 929.683 24.8998 930.069 25.2639L929.303 26.2742C929.005 25.9843 928.652 25.7561 928.265 25.6028C927.879 25.4494 927.466 25.3739 927.05 25.3806C926.26 25.3806 925.75 25.7755 925.75 26.3442C925.75 27.7953 930.255 26.9014 930.255 29.781C930.255 31.0699 929.338 32.1843 927.259 32.1843C926.676 32.2077 926.095 32.1104 925.551 31.8987C925.008 31.6869 924.514 31.3651 924.101 30.9536Z" fill="white"/>
<path id="Vector_68" d="M932.032 28.1781C932.032 25.8678 933.669 24.1721 935.992 24.1721C938.302 24.1721 939.951 25.8678 939.951 28.1781C939.971 29.2045 939.602 30.2006 938.917 30.9655L939.556 31.6835L938.616 32.4733L937.942 31.7194C937.34 32.0317 936.67 32.1911 935.992 32.1836C933.669 32.1843 932.032 30.4894 932.032 28.1781ZM937.083 30.7447L936.119 29.6529L937.071 28.863L938.035 29.9541C938.389 29.4301 938.571 28.8094 938.558 28.1773C938.558 26.5754 937.547 25.3795 935.992 25.3795C934.424 25.3795 933.425 26.5754 933.425 28.1773C933.425 29.7685 934.424 30.9777 935.992 30.9777C936.368 30.9813 936.741 30.9019 937.083 30.745V30.7447Z" fill="white"/>
<path id="Vector_69" d="M942.032 32.0454V24.3007H943.39V30.8498H946.804V32.0457L942.032 32.0454Z" fill="white"/>
</g>
<g id="html">
<path id="Vector_70" d="M43.1718 211H4.87378C2.73435 211 1 212.734 1 214.874V225.867C1 228.007 2.73435 229.741 4.87378 229.741H43.1718C45.3113 229.741 47.0456 228.007 47.0456 225.867V214.874C47.0456 212.734 45.3113 211 43.1718 211Z" fill="#E44D26" stroke="#1E223B" stroke-width="2" stroke-miterlimit="10"/>
<path id="Vector_71" d="M43.1718 211H4.87378C2.73435 211 1 212.734 1 214.874V225.867C1 228.007 2.73435 229.741 4.87378 229.741H43.1718C45.3113 229.741 47.0456 228.007 47.0456 225.867V214.874C47.0456 212.734 45.3113 211 43.1718 211Z" stroke="#1E223B" stroke-width="2" stroke-linecap="round" stroke-linejoin="round"/>
<path id="Vector_72" d="M12.3384 224.618V220.899H7.92033V224.618H6.43042V216.124H7.92033V219.587H12.3384V216.124H13.8283V224.618H12.3384Z" fill="white"/>
<path id="Vector_73" d="M18.617 224.618V217.438H16.0447V216.126H22.6779V217.438H20.1055V224.618H18.617Z" fill="white"/>
<path id="Vector_74" d="M32.23 224.618V218.059L29.6322 224.618H28.9967L26.3866 218.06V224.618H24.8967V216.124H26.9977L29.3155 221.956L31.62 216.124H33.721V224.618H32.23Z" fill="white"/>
<path id="Vector_75" d="M36.3816 224.618V216.124H37.8712V223.304H41.615V224.618H36.3816Z" fill="white"/>
</g>
<g id="JS">
<path id="Vector_76" d="M59.7073 28H34.5059C32.6587 28 31.1611 29.4975 31.1611 31.3448V41.3786C31.1611 43.2259 32.6587 44.7234 34.5059 44.7234H59.7073C61.5546 44.7234 63.0521 43.2259 63.0521 41.3786V31.3448C63.0521 29.4975 61.5546 28 59.7073 28Z" fill="#EDF043"/>
<path id="Vector_77" d="M59.7073 28H34.5059C32.6587 28 31.1611 29.4975 31.1611 31.3448V41.3786C31.1611 43.2259 32.6587 44.7234 34.5059 44.7234H59.7073C61.5546 44.7234 63.0521 43.2259 63.0521 41.3786V31.3448C63.0521 29.4975 61.5546 28 59.7073 28Z" stroke="#1E223B" stroke-width="2" stroke-linecap="round" stroke-linejoin="round"/>
<path id="JS_2" d="M44.0942 38.2982V31.4007H46.1382V38.2982C46.1382 38.9635 45.9924 39.5355 45.7007 40.014C45.409 40.4879 45.0103 40.8525 44.5044 41.1077C44.0031 41.3629 43.438 41.4905 42.8091 41.4905C42.1574 41.4905 41.5809 41.3812 41.0796 41.1624C40.5783 40.9437 40.1841 40.6087 39.897 40.1575C39.6099 39.7018 39.4663 39.1253 39.4663 38.428H41.5239C41.5239 38.7926 41.5741 39.082 41.6743 39.2962C41.7791 39.5104 41.9272 39.6631 42.1187 39.7542C42.3101 39.8454 42.5402 39.8909 42.8091 39.8909C43.0688 39.8909 43.2944 39.8294 43.4858 39.7064C43.6772 39.5833 43.8254 39.4033 43.9302 39.1663C44.0396 38.9293 44.0942 38.64 44.0942 38.2982ZM53.0698 38.7493C53.0698 38.5716 53.0425 38.4121 52.9878 38.2708C52.9377 38.125 52.842 37.9928 52.7007 37.8743C52.5594 37.7513 52.3612 37.6305 52.106 37.512C51.8507 37.3935 51.5203 37.2705 51.1147 37.1429C50.6636 36.997 50.2352 36.833 49.8296 36.6507C49.4285 36.4684 49.0731 36.2565 48.7632 36.015C48.4578 35.7689 48.2163 35.484 48.0386 35.1605C47.8654 34.8369 47.7788 34.4609 47.7788 34.0325C47.7788 33.6178 47.87 33.2418 48.0522 32.9046C48.2345 32.5628 48.4897 32.2711 48.8179 32.0296C49.146 31.7835 49.5334 31.5944 49.98 31.4622C50.4312 31.3301 50.9256 31.264 51.4634 31.264C52.1971 31.264 52.8374 31.3961 53.3843 31.6605C53.9312 31.9248 54.355 32.2871 54.6558 32.7474C54.9611 33.2077 55.1138 33.734 55.1138 34.3265H53.0767C53.0767 34.0348 53.0151 33.7796 52.8921 33.5609C52.7736 33.3375 52.5913 33.1621 52.3452 33.0345C52.1037 32.9069 51.7983 32.8431 51.4292 32.8431C51.0737 32.8431 50.7775 32.8978 50.5405 33.0071C50.3035 33.112 50.1258 33.2555 50.0073 33.4378C49.8888 33.6155 49.8296 33.8161 49.8296 34.0394C49.8296 34.208 49.8706 34.3607 49.9526 34.4974C50.0392 34.6341 50.1668 34.7617 50.3354 34.8802C50.5041 34.9987 50.7114 35.1103 50.9575 35.2151C51.2036 35.32 51.4884 35.4225 51.812 35.5228C52.3543 35.6868 52.8306 35.8714 53.2407 36.0765C53.6554 36.2816 54.0018 36.5117 54.2798 36.7669C54.5578 37.0221 54.7674 37.3115 54.9087 37.6351C55.05 37.9586 55.1206 38.3255 55.1206 38.7357C55.1206 39.1686 55.0363 39.556 54.8677 39.8978C54.6991 40.2396 54.4552 40.529 54.1362 40.7659C53.8172 41.0029 53.4367 41.1829 52.9946 41.306C52.5526 41.429 52.0581 41.4905 51.5112 41.4905C51.019 41.4905 50.5337 41.4267 50.0552 41.2991C49.5767 41.167 49.1414 40.9687 48.7495 40.7044C48.3621 40.4401 48.0522 40.1028 47.8198 39.6927C47.5874 39.2825 47.4712 38.7972 47.4712 38.2366H49.5288C49.5288 38.5465 49.5767 38.8086 49.6724 39.0228C49.7681 39.237 49.9025 39.4101 50.0757 39.5423C50.2534 39.6745 50.4631 39.7702 50.7046 39.8294C50.9507 39.8887 51.2196 39.9183 51.5112 39.9183C51.8667 39.9183 52.1584 39.8681 52.3862 39.7679C52.6187 39.6676 52.7896 39.5286 52.8989 39.3509C53.0129 39.1732 53.0698 38.9726 53.0698 38.7493Z" fill="black"/>
</g>
</g>
</svg>
